/* XPM */
static const char * database_backup_xpm[] = {
"16 16 87 1",
" 	c None",
".	c #A288AA",
"+	c #C4B2BD",
"@	c #CAB9C1",
"#	c #B6A0B5",
"$	c #AA9EBD",
"%	c #BAB6CE",
"&	c #B9B3CC",
"*	c #AA94B1",
"=	c #EFE2D7",
"-	c #F9EEDE",
";	c #F2E6D9",
">	c #F9EDDD",
",	c #D2C1C5",
"'	c #C5C6DB",
")	c #D7E0EF",
"!	c #CCD0E2",
"~	c #C2C0D6",
"{	c #C7B5C0",
"]	c #F9EEDD",
"^	c #F7EBDC",
"/	c #D2C2C5",
"(	c #FAEFDE",
"_	c #C6CDE4",
":	c #CED8ED",
"<	c #C9D1E8",
"[	c #A494B9",
"}	c #D9C9C9",
"|	c #F7ECDC",
"1	c #BCA8B8",
"2	c #C9B8C0",
"3	c #9A84AE",
"4	c #CCD5EB",
"5	c #D3D8E8",
"6	c #F6EBDC",
"7	c #C3B0BC",
"8	c #A598BD",
"9	c #C8CFE6",
"0	c #CCBCC5",
"a	c #FAEEDE",
"b	c #EEE2D7",
"c	c #A187AA",
"d	c #AEA7C7",
"e	c #BEBED8",
"f	c #CBBCC5",
"g	c #EEE1D7",
"h	c #F4E8DA",
"i	c #E0D2CE",
"j	c #AD96B0",
"k	c #B8B6D2",
"l	c #BAB8D3",
"m	c #B8B4CF",
"n	c #ACA2C4",
"o	c #C1C5DE",
"p	c #C0C3DC",
"q	c #B0AAC9",
"r	c #B4B2CF",
"s	c #AFA9C9",
"t	c #9278A6",
"u	c #BEC7E2",
"v	c #BFC8E3",
"w	c #C0CAE4",
"x	c #C0CAE5",
"y	c #BDC7E2",
"z	c #B187AF",
"A	c #B1AECE",
"B	c #ADACCC",
"C	c #B7BCD9",
"D	c #BFCBE5",
"E	c #B1B4D2",
"F	c #B6BCDA",
"G	c #B0B1D1",
"H	c #BDC6E2",
"I	c #9278A7",
"J	c #9177A6",
"K	c #B4C1DD",
"L	c #AAAACB",
"M	c #B0BAD8",
"N	c #B4C2DE",
"O	c #B4C3DF",
"P	c #B5C4E0",
"Q	c #B2BEDB",
"R	c #B3C0DD",
"S	c #B1BDDA",
"T	c #B3C1DD",
"U	c #A29FC2",
"V	c #A3A2C4",
"          .+@#  ",
"  $%%%%%&*=-;>, ",
"  '))))!~{]^/(>#",
"  _::::<[}(|1/;2",
" 34:::::56((|^-7",
" 8::::::90a(((bc",
" d:::::::efghij ",
" k::::::::9lmn  ",
" o:::::::::::p  ",
" qrrrrrrrrrrrs  ",
"tuvwxxxxxxxxxut ",
"tyzABCDEFFEGEHI ",
"JKLMNOPQRRQSQTJ ",
" UVVVVVVVVVVVU  ",
"                ",
"                "};
