/* XPM */
static const char* database_restore[] = {
"16 16 102 2",
"  	c None",
". 	c #A292B8",
"+ 	c #AAA0C2",
"@ 	c #AFA8C7",
"# 	c #B1ACCA",
"$ 	c #AFA8C8",
"% 	c #ACA3C4",
"& 	c #B0A9C9",
"* 	c #C6CCE4",
"= 	c #BBBAD6",
"- 	c #B1AACA",
"; 	c #B7B4D1",
"> 	c #C3C7E0",
", 	c #BCBDD7",
"' 	c #CED8ED",
") 	c #CDD7EC",
"! 	c #AFA9C8",
"~ 	c #ACA5C5",
"{ 	c #ACA4C5",
"] 	c #9D8AB3",
"^ 	c #C7CDE4",
"/ 	c #C6CDE4",
"( 	c #9C89B2",
"_ 	c #B4B0CE",
": 	c #B0AACA",
"< 	c #BCBDD8",
"[ 	c #C5CAE2",
"} 	c #CAD1E8",
"| 	c #CBD4EA",
"1 	c #AEA9C9",
"2 	c #A6A5C7",
"3 	c #A19DC1",
"4 	c #ABA3C4",
"5 	c #C1CAE5",
"6 	c #B9BEDB",
"7 	c #B2B1D1",
"8 	c #AEACCC",
"9 	c #ADAACB",
"0 	c #B1B1D1",
"a 	c #AEB6D5",
"b 	c #B4C1DE",
"c 	c #B5C4E0",
"d 	c #9F97BD",
"e 	c #A090B7",
"f 	c #B1ACCB",
"g 	c #BCC3DF",
"h 	c #C1CCE6",
"i 	c #C2CDE7",
"j 	c #C1CDE7",
"k 	c #B5C3E0",
"l 	c #B0BAD8",
"m 	c #A3A0C4",
"n 	c #9889B2",
"o 	c #B2AECC",
"p 	c #C8D0E7",
"q 	c #B0AECE",
"r 	c #AAA3C6",
"s 	c #AAA4C7",
"t 	c #ABA6C8",
"u 	c #ACA9CA",
"v 	c #A39EC2",
"w 	c #A6A5C8",
"x 	c #A5A5C7",
"y 	c #A39FC3",
"z 	c #C1CBE6",
"A 	c #C0CAE5",
"B 	c #B5C3DF",
"C 	c #9D9FBE",
"D 	c #7EADAA",
"E 	c #8F82A7",
"F 	c #B3B4D3",
"G 	c #BAC0DD",
"H 	c #B8BCD9",
"I 	c #B9BFDB",
"J 	c #9895B6",
"K 	c #78BBAC",
"L 	c #72CAAF",
"M 	c #8981A2",
"N 	c #ADA6C6",
"O 	c #C1CBE5",
"P 	c #BABFDC",
"Q 	c #B1B1D0",
"R 	c #7EABA9",
"S 	c #80A3A8",
"T 	c #74C6AE",
"U 	c #80A3A7",
"V 	c #A19FC1",
"W 	c #9890B5",
"X 	c #75C4AE",
"Y 	c #8B75A0",
"Z 	c #8B74A0",
"` 	c #9D8EB6",
" .	c #A69CC1",
"..	c #A9A4C6",
"+.	c #ABA7C8",
"@.	c #AAA4C6",
"#.	c #A59CC1",
"$.	c #9A8AB4",
"%.	c #8D78A2",
"&.	c #8B78A0",
"*.	c #8B77A0",
"=.	c #76C2AD",
"                                ",
"        . + @ # $ % .           ",
"    & * = - ; > , ' ) * !       ",
"  ~ ' ' ' ' ' ' ' ' ' ' ' {     ",
"  ] ^ ' ' ' ' ' ' ' ' ' / (     ",
"  ! _ : < [ } | } [ < 1 2 3     ",
"  4 ) 5 6 7 8 9 8 0 a b c d     ",
"  e f g h i i i i j k l m n     ",
"  o p q r s t u t r v w x y     ",
"  ] * i i z A A A z B C D E     ",
"  ! _ s F G A H H I J K L K M   ",
"  N ) O 6 0 P H P Q R S T U R   ",
"    ! g h i i i i O V W X Y Z   ",
"        `  ...+.@.#.$.%.X &.    ",
"                      *.=.*.    ",
"                        *.      "};
