/* XPM */
static const char *entrytaskxpm[] = {
/* columns rows colors chars-per-pixel */
"16 16 16 1 ",
"  c None",
". c #509DE4",
"X c #519EE4",
"o c #529EE5",
"O c #57A2E6",
"+ c #59A3E7",
"@ c #64ABEB",
"# c #79BAF2",
"$ c #7ABAF2",
"% c #7ABBF2",
"& c #7CBCF2",
"* c #80BFF4",
"= c #81C0F4",
"- c #8AC6F7",
"; c #90CAF9",
": c #91CBF9",
/* pixels */
"                ",
"                ",
"   ;;;;;;;;;;   ",
"  ;;;::::::;;;  ",
"  ;;-******-;;  ",
"  ;:#......$:;  ",
"  ;:%oooX+-:;;  ",
"  ;:&OOOO+@=:;  ",
"  ;:&OOOO+@=:;  ",
"  ;:%oooX+-:;;  ",
"  ;:#......$:;  ",
"  ;;-******-;;  ",
"  ;;;::::::;;;  ",
"   ;;;;;;;;;;   ",
"                ",
"                "
};
