/* XPM */
static const char* feedback_xpm[] = {
"18 18 28 1",
" 	c None",
".	c #181818",
"+	c #191919",
"@	c #060606",
"#	c #1D1D1D",
"$	c #111111",
"%	c #101010",
"&	c #0B0B0B",
"*	c #0A0A0A",
"=	c #0D0D0D",
"-	c #0E0E0E",
";	c #1C1C1C",
">	c #202020",
",	c #161616",
"'	c #222222",
")	c #151515",
"!	c #1F1F1F",
"~	c #171717",
"{	c #212121",
"]	c #0F0F0F",
"^	c #131313",
"/	c #121212",
"(	c #1A1A1A",
"_	c #1B1B1B",
":	c #0C0C0C",
"<	c #030303",
"[	c #010101",
"}	c #141414",
"      .+@@+.      ",
"    #$%$&*$=-;    ",
"   >,'      ;)!   ",
"  !~          ~>  ",
" ;)            ,# ",
" ${  ]%    ^-  {$ ",
".%   $      ]   %+",
"+/              $(",
"@&              *@",
"@&              *@",
"+$              $(",
".%   ;      _   %+",
" ${  ':    ='  >$ ",
" ;,   &<[[<*   }; ",
"  !,    <<    }^  ",
"   )}{      {}^   ",
"    #$%$**$%%;    ",
"      +(@@(+      "};
