/* XPM */
static const char *tasks_tracker_service[] = {
/* columns rows colors chars-per-pixel */
"64 64 198 2 ",
"   c #8C6B9E",
".  c #8D6B9E",
"X  c #8D6B9F",
"o  c #8D6C9E",
"O  c #8D6C9F",
"+  c #8D6D9F",
"@  c #8E6D9E",
"#  c #8E6C9F",
"$  c #8E6D9F",
"%  c #906E9E",
"&  c #8D6BA0",
"*  c #8D6CA0",
"=  c #8D6DA0",
"-  c #8E6CA0",
";  c #8F6EA0",
":  c #906FA1",
">  c #8E70A2",
",  c #8F70A2",
"<  c #8F72A3",
"1  c #9171A1",
"2  c #9373A1",
"3  c #9071A3",
"4  c #9173A3",
"5  c #9676A3",
"6  c #9172A4",
"7  c #9073A4",
"8  c #9173A4",
"9  c #9175A5",
"0  c #9176A6",
"q  c #9778A5",
"w  c #9A7BA7",
"e  c #9379A9",
"r  c #937AA9",
"t  c #957AAA",
"y  c #957CAB",
"u  c #967FAC",
"i  c #9C7EA9",
"p  c #A6859C",
"a  c #A7879C",
"s  c #9784AF",
"d  c #9982AF",
"f  c #9A84B1",
"g  c #9988B1",
"h  c #9D89B5",
"j  c #9D8AB5",
"k  c #9C90B6",
"l  c #9C90B7",
"z  c #9D92B8",
"x  c #9D93B8",
"c  c #A486A7",
"v  c #A788A7",
"b  c #A083AA",
"n  c #A184AB",
"m  c #A387AC",
"M  c #A589AE",
"N  c #A78BAE",
"B  c #A98AA8",
"V  c #AE91AA",
"C  c #B597AB",
"Z  c #B699AC",
"A  c #BB9FAE",
"S  c #A88CB0",
"D  c #A88DB2",
"F  c #AC90B1",
"G  c #AE93B2",
"H  c #AC92B4",
"J  c #AF95B6",
"K  c #A291BB",
"L  c #A192BB",
"P  c #A293BC",
"I  c #B198B4",
"U  c #B49AB6",
"Y  c #B69DB6",
"T  c #B59DBB",
"R  c #B79FBC",
"E  c #BEA2AF",
"W  c #B9A1B8",
"Q  c #BBA3BA",
"!  c #C7A896",
"~  c #C6A897",
"^  c #C7A997",
"/  c #C1A5B0",
"(  c #C7ADB1",
")  c #C3ADBE",
"_  c #C4ADBF",
"`  c #C4AEBF",
"'  c #CEB3B3",
"]  c #D2B8B5",
"[  c #D6BCB7",
"{  c #F9DD8F",
"}  c #EED190",
"|  c #EED191",
" . c #EFD291",
".. c #DBC3B8",
"X. c #E0C7B9",
"o. c #E1C9BA",
"O. c #E3CBBA",
"+. c #E4CCBB",
"@. c #E7CFBB",
"#. c #E8D1BC",
"$. c #ECD4BD",
"%. c #EFD8BE",
"&. c #EFD9BE",
"*. c #A69AC2",
"=. c #A99FC4",
"-. c #A3A1C2",
";. c #A9A0C5",
":. c #AAA1C6",
">. c #A6A8C6",
",. c #A7A9C7",
"<. c #BCA6C0",
"1. c #B1ACCF",
"2. c #B0ADCF",
"3. c #AAB2CD",
"4. c #ABB4CE",
"5. c #ABB6CF",
"6. c #B2AFD1",
"7. c #ACB7D0",
"8. c #ACB7D1",
"9. c #B4B3D4",
"0. c #B4B4D4",
"q. c #B6B7D6",
"w. c #B6B7D7",
"e. c #B7B8D8",
"r. c #B7B9D8",
"t. c #BABFDD",
"y. c #C2ADC4",
"u. c #C5B2C6",
"i. c #C8B4C2",
"p. c #CAB6C9",
"a. c #CCBACB",
"s. c #D0BCC6",
"d. c #D2BFC7",
"f. c #D0BECD",
"g. c #B6C1DA",
"h. c #BAC0DD",
"j. c #BDC4E0",
"k. c #BDC5E0",
"l. c #BFC7E3",
"z. c #BFCAE3",
"x. c #D8C6CA",
"c. c #DAC8CB",
"v. c #DACACC",
"b. c #DECECE",
"n. c #D3C2D0",
"m. c #D7C7D3",
"M. c #DBCCD5",
"N. c #DECFD7",
"B. c #F0DAC1",
"V. c #F0DCC3",
"C. c #F1DBC4",
"Z. c #E3D3D1",
"A. c #E6D6D2",
"S. c #E8DAD3",
"D. c #EBDDD6",
"F. c #E0D2D9",
"G. c #E4D7DB",
"H. c #E7DBDD",
"J. c #F2E0C9",
"K. c #F3E0CA",
"L. c #F3E2CB",
"P. c #F5E4CF",
"I. c #EEE0D7",
"U. c #F6E6D2",
"Y. c #F7E8D4",
"T. c #F1E4D9",
"R. c #F2E5D9",
"E. c #F5EADB",
"W. c #F6EADC",
"Q. c #F8EBD8",
"!. c #F9ECDA",
"~. c #F9EDDB",
"^. c #F9EEDD",
"/. c #FAEFDE",
"(. c #C0CAE5",
"). c #C1CAE5",
"_. c #C2CDE7",
"`. c #EBDFE0",
"'. c #EDE2E2",
"]. c #F1E6E4",
"[. c #F2E8E5",
"{. c #F6EDE8",
"}. c #FBF0E0",
"|. c #FBF1E1",
" X c #FBF2E3",
".X c #FCF2E4",
"XX c #FCF3E5",
"oX c #FDF4E6",
"OX c #FAF1EA",
"+X c #FDF5E8",
"@X c #FEF5E9",
"#X c #FEF6EB",
"$X c #FDF6EC",
"%X c #FEF7EC",
"&X c #FFF7EE",
"*X c #FFF8ED",
"=X c #FFF8EE",
"-X c None",
/* pixels */
"-X-X-X-X-X-X-X-X-X-X-X-X-X-X-X-X-X-X-X-X-X-X-X-X-X-X-X-X-X-X-X-X-X-X-X-X-X-X-X-X-X-X-X-X-X-X-X-X-X-X-X-X-X-X-X-X-X-X-X-X-X-X-X-X",
"-X-X-X-X-X-X-X-X-X-X-X-X-X-X-X-X-X-X-X-X-X-X-X-X-X-X-X-X-X-X-X-X-X-X-X-X-X-X-X-X-X-X-X-X-X-X-X-X-X-X-X-X-X-X-X-X-X-X-X-X-X-X-X-X",
"-X-X-X-X-X-X-X-X-X-X-X-X-X-X-X-X-X-X-X-X-X-X-X-X-X-X-X-X-X-X-X-X-X-X-X-X-X-X-X-X-X-X-X-X-X-X-X-X-X-X-X-X-X-X-X-X-X-X-X-X-X-X-X-X",
"-X-X-X-X-X-X-X-X-X-X-X-X-X-X-X-X-X-X-X-X-X-X-X-X-X-X-X-X-X-X-X-X-X-X-X-X-X-X-X-X-X-X-X-X-X-X-X-X-X-X-X-X-X-X-X-X-X-X-X-X-X-X-X-X",
"-X-X-X-X-X-X-X-X-X-X-X-X-X-X-X-X-X-X-X-X-X-X-X-X-X-X-X-X-X-X-X-X-X-X-X-X-X-XO O O O O * -X-X-X-X-X-X-X-X-X-X-X-X-X-X-X-X-X-X-X-X",
"-X-X-X-X-X-X-X-X-X-X-X-X-X-X-X-X-X-X-X-X-X-X-X-X-X-X-X-X-X-X-X-X-X-X-X-X-X-XO O O O O O -X-X-X-X-X-X-X-X-X-X-X-X-X-X-X-X-X-X-X-X",
"-X-X-X-X-X-X-X-X-X-X-X-X-X-X-X-X-X-X-X-X-X-X-X-X-X-X-X-X-X-X-X-X-X-X-X-X-X-XO h _._.h O -X-X-X-X-X-X-X-X-X-X-X-X-X-X-X-X-X-X-X-X",
"-X-X-X-X-X-X-X-X-X-X-X-X-X-X-X-X-X-X-X-X-X-X-X-X-X-X-X-X-X-X-X* -X-X-X-X-XO O :._._.:.O O -X-X-X-X-X* -X-X-X-X-X-X-X-X-X-X-X-X-X",
"-X-X-X-X-X-X-X-X-X-X-X-X-X-X-X-X-X-X-X-X-X-X-X-X-X-X-X-X-XO O O O -X-X-X-XO O w._._.w.X O -X-X-X-XO O O O -X-X-X-X-X-X-X-X-X-X-X",
"-X-X-X-X-X-X-X-X-X-X-X-X-X-X-X-X-X-X-X-X-X-X-X-X-X-X-X-XO O * d O O O O O O < )._._._.* O * O O O O d : O O -X-X-X-X-X-X-X-X-X-X",
"-X-X-X-X-X-X-X-X-X-X-X-X-X-X-X-X-X-X-X-X-X-X-X-X-X-X-X-XO : 6._.2.3 O O < L r._._._._.r.x 6 * * 8 2._.6.O O -X-X-X-X-X-X-X-X-X-X",
"-X-X-X-X-X-X-X-X-X-X-X-X-X-X-X-X-X-X-X-X-X-X-X-X-X-X-XO O d _._._.(.*.:.l._._._._._._._._.l.:.*.(._._._.s O * -X-X-X-X-X-X-X-X-X",
"-X-X-X-X-X-X-X-X-X-X-X-X-X-X-X-X-X-X-X-X-X-X-X-X-X-X-X-XO O 2._._._._._._.6.P t < O h _._._._._._._._.1.O O -X-X-X-X-X-X-X-X-X-X",
"-X-X-X-X-X-X-X-X-X-X-X-X-X-X-X-X-X-X-X-X-X-X-X-X-X-X-X-X-XO 8 l._._._.h.f * O O O O t g.).h.k._._._.(.8 O -X-X-X-X-X-X-X-X-X-X-X",
"-X-X-X-X-X-X-X-X-X-X-X-X-X-X-X-X-X-X-X-X-X-X-X-X-X-X-X-X-X* X *._._.w.2 * 2 x ,.5.5.7.7.7.2 8 r._._.*.X * -X-X-X-X-X-X-X-X-X-X-X",
"-X-X-X-X-X-X-X-X-X-X-X-X-X-X-X-X-X-X-X-X-X-X-X-X-X-X-X-X-XO X =._.t.3 O s 5.8.8.5.5.7.7.7.g O 2 h._.=.X O -X-X-X-X-X-X-X-X-X-X-X",
"-X-X-X-X-X-X-X-X-X-X-X-X-X-X-X-X-X-X-X-X-X-X-X-X-X-X-X-X-XO 3 (._.f O s 7.5.-.d < < y -.7.7.g 8 k._.(.3 O -X-X-X-X-X-X-X-X-X-X-X",
"-X-X-X-X-X-X-X-X-X-X-X-X-X-X-X-X-X-X-X-X-X-X-X-X-X-X-XX O O L _.0.  2 4.7.k   O X O O O x 7.7.7.(._._.L O O X -X-X-X-X-X-X-X-X-X",
"-X-X-X-X-X-X-X-X-X-X-X-X-X-X-X-X-X-X-X-X-X-X-X-XO O O O O 3 w._.P O x 5.-.O % ~ } } ~ % O -.5.7.g._._.q.: O O O O * -X-X-X-X-X-X",
"-X-X-X-X-X-X-X-X-X-X-X-X-X-X-X-X-X-X-X-X-X-X-X-XO O h :.w.)._._.t O ,.5.d O ~ { { { { ~ O u 5.5.t h _._.(.r.:.h O O -X-X-X-X-X-X",
"-X-X-X-X-X-X-X-X-X-X-X-X-X-X-X-X-X-X-X-X-X-X-X-XO O _._._._._._.< O 5.5.<   } { p a {  .O < 5.5.X % _._._._._._.O O -X-X-X-X-X-X",
"-X-X-X-X-X-X-X-X-X-X-X-X-X-X-X-X-X-X-X-X-X-X-X-XO O _._._._._._.< O 5.5.; O } { p a {  .O * 5.5.O 3 _._._._._._.O O -X-X-X-X-X-X",
"-X-X-X-X-X-X-X-X-X-X-X-X-X-X-X-X-X-X-X-X-X-X-X-XO O h :.w.)._._.t O >.5.d X ~ { { { { ~ O d 5.,.O y _._.).w.:.h O O -X-X-X-X-X-X",
"-X-X-X-X-X-X-X-X-X-X-X-X-X-X-X-X-X-X-X-X-X-X-X-X* O O O O : w._.K X x 7.-.O O ~ }  .~ % O -.7.x O P _.r.3 X O O O * -X-X-X-X-X-X",
"-X-X-X-X-X-X-X-X-X-X-X-X-X-X-X-X-X-X-X-X-X-X-X-X-X-X-XX O O L _.9.O 3 5.5.x X X * O O X k 5.3.3 * 6._.L O O O -X-X-X-X-X-X-X-X-X",
"-X-X-X-X-X-X-X-X-X-X-X-X-X-X-X-X-X-X-X-X-X-X-X-X-X-X-X-X-XO 3 (._.f O s 7.7.-.y * < d -.7.7.s O f ).(.3 O -X-X-X-X-X-X-X-X-X-X-X",
"-X-X-X-X-X-X-X-X-X-X-X-X-X-X-X-X-X-X-X-X-X-X-X-X-X-X-X-X-XO O =._.t.6 O s 3.7.7.5.7.7.7.3.s O 3 h._.:.O O -X-X-X-X-X-X-X-X-X-X-X",
"-X-X-X-X-X-X-X-X-X-X-X-X-X-X-X-X-X-X-X-X-X-X-X-X-X-X-X-X-XO O *._._.q.6 O 3 x >.3.4.,.x < O 3 r._._.*.O * -X-X-X-X-X-X-X-X-X-X-X",
"-X-X-X-X-X-X-X-X-X-X-X-X-X-X-X-X-X-X-X-X-X-X-X-X-X-X-X-X-XO 8 (._._._.t.f O O O O O O O # f g._._._.(.8 O -X-X-X-X-X-X-X-X-X-X-X",
"-X-X-X-X-X-X-X-X-X-X-X-X-X-X-X-X-X-X-X-X-X-X-X-X-X-X-X-XO O 2._._._._._._.0.P y 3 3 y P 9._._._._._._.2.O O -X-X-X-X-X-X-X-X-X-X",
"-X-X-X-X-X-X-X-X-X-X-X-X-X-X-X-X-X-X-X-X-X-X-X-X-X-X-X* O d _._._.(.*.:.(._._._._._._._._.(.:.*.(._._._.d O * -X-X-X-X-X-X-X-X-X",
"-X-X-X-X-X-X-X-X-X-X-X-X-X-X-X-X-X-X-X-X-X-X-X-X-X-X-X-XO * 6._.1.3 O X : L r._._._._.r.K : O O 3 2._.6.* O -X-X-X-X-X-X-X-X-X-X",
"-X-X-X-X-X-X-X-X-X-X-X-X-X-X-X-X-X-X-X-X-X-X-X-X-X-X-X-XO O : d X X O O O O 3 )._._._.< X X O O O O d * O O -X-X-X-X-X-X-X-X-X-X",
"-X-X-X-X-X-X-X-X-X-X-X-X-X-X-X-X-X-X-X-X-X-X-X-X-X-X-X-X-XO X O O -X-X-X-XO X w._._.r.  O -X-X-X-XO O O O -X-X-X-X-X-X-X-X-X-X-X",
"-X-X-X-X-X-X-X-X-X-X-X-X-X-X-X-X-X-X-X-X-X-X-X-X-X-X-X-X-X-X-X* -X-X-X-X-XO O :._._.:.O X -X-X-X-X-X* -X-X-X-X-X-X-X-X-X-X-X-X-X",
"-X-X-X-X-X-X-X-X-X-X-X-X-X-X-X-X* O O X -X-X-X-X-X-X-X-X-X-X-X-X-X-X-X-X-X-XO h _._.h O -X-X-X-X-X-X-X-X-X-X-X-X-X-X-X-X-X-X-X-X",
"-X-X-X-X-X-X-XO O O * O * * * O O O O O * * * -X-X-X-X-X-X-X-X-X-X-X-X-X-X-XO O O O O O -X-X-X-X-X-X-X-X-X-X-X-X-X-X-X-X-X-X-X-X",
"-X-X-X* & & O O O O O : w S T y.f.m.m.a.R q * O * & -X-X-X-X-X-X-X-X-X-X-X-X* O O O O * -X-X-X-X-X-X-X-X-X-X-X-X-X-X-X-X-X-X-X-X",
"-X-XO O 5 J <.p.m.G.[.$X=X=X=X*X=X=X*X*X=X%XM.S & & * O -X-X-X-X-X-X-X-X-X-X-X-X-X-X-X-X-X-X-X-X-X-X-X-X-X-X-X-X-X-X-X-X-X-X-X-X",
"-X-XO O [.=X=X=X*X*X*X*X=X=X=X*X=X=X=X*X=X=X=X%XG.I O O O O -X-X-X-X-X-X-X-X-X-X-X-X-X-X-X-X-X-X-X-X-X-X-X-X-X-X-X-X-X-X-X-X-X-X",
"-X-XO O *X*XN O O S *X*X*X$XoXoXXXXXXXXX$X$X%X*X*X*X`.R * * O O -X-X-X-X-X-X-X-X-X-X-X-X-X-X-X-X-X-X-X-X-X-X-X-X-X-X-X-X-X-X-X-X",
"-X-XO O %X$XS O O N |././././././.}./././././.$X%X%X*X=X[.<.3 * O O O O O O X -X-X-X-X-X-X-X-X-X-X-X-X-X-X-X-X* O O O -X-X-X-X-X",
"-X-XO O /./././././././././././././././././././.}.$X&X*X*X=X{.y.5 O O O * * * * O -X-X-X-X-X-X-X-X-X-XX * O * * O O O O O -X-X-X",
"-X-XO O /./././././././././././././././././././././.}.XX%X=X=X=X$XF.f.p.f.m.f.D O * -X-X-X-X-X* O O O O O 3 H p.H.{.N.w O -X-X-X",
"-X-XO O /././././././././././././././././././././././././.oX*X*X*X*X=X=X=X=X&X&XT O O O * * * * O 3 S u.G.%X&X=X*X*X%XH.O O -X-X",
"-X-XO O /./.M O O N /././././././././././././././././././././.oX%X*X=X*X=X=X%X%X'.O O O O O M y.N.OX*X*X=X=X=X=X*X$X$X Xq O -X-X",
"-X-XO O /./.N O O N /././././././././././././././././././././././.|.XXXXXXXXXX+X%X: X <.M.{.*X=X=X&X*X=X*X%XoXXX|././.E.: : -X-X",
"-X-XO O /./././././././././././././././././././.I b i.R./././././././././././.W.i.O i *X*X*X=X=X=X%X%XXX|././././././.W X O -X-X",
"-X-XO O /././././././.Q.Y.P.P.Y.Q./././././././.S O O : U b./././././././.T.) q O * n.*X*X*X$XoX|././././././././.x.b O O -X-X-X",
"-X-XO O /././.Q.U.L.C.%.%.%.%.%.&.J.Q././././././.x.G % O * i Q x.v.x.i.F : O & n x.XXoX|./././.}././././././.c.m O O * -X-X-X-X",
"-X-XO O Y.L.c O X c &.%.%.%.%.%.&.%.$.L.~././././././.I.) q O O   X O O X O G b./././././././././././././.b.M O O O -X-X-X-X-X-X",
"-X-XO O %.&.c O X c %.X.' / / ' +.&.&.%.&.L.~./././././././.A.) U S G Q s.R./././././././././././././.Z.G O O O O -X-X-X-X-X-X-X",
"-X-XO O $.&.&.X.( V 5 O X O O O O B ] %.%.%.C.P./././././././././././././././././././././././././.A.G O O * O -X-X-X-X-X-X-X-X-X",
"-X-XO O c V 5 O O O O O O & O O O O X c [ %.%.&.C.P./././././././././././././././././././././.S.I & O O X -X-X-X-X-X-X-X-X-X-X-X",
"-X-X-XO O O O O O -X-X-X-X-X-X-X-X-XO O X B ..&.%.%.&.U././././././././././././.U.L.L.Q./.D.Y O * * O -X-X-X-X-X-X-X-X-X-X-X-X-X",
"-X-X-X-X-X-X-X-X-X-X-X-X-X-X-X-X-X-X-X-XO X O V X.%.%.%.C.U././././././././.Y.C.&.%.%.+.Y : O O O -X-X-X-X-X-X-X-X-X-X-X-X-X-X-X",
"-X-X-X-X-X-X-X-X-X-X-X-X-X-X-X-X-X-X-X-X-X-X* O O V o.&.%.%.C.P.Q.~.~.Q.P.C.%.%.&.@.A : O O O -X-X-X-X-X-X-X-X-X-X-X-X-X-X-X-X-X",
"-X-X-X-X-X-X-X-X-X-X-X-X-X-X-X-X-X-X-X-X-X-X-XO O X : C @.%.&.%.&.&.%.%.%.%.%.#.E 3 O O * -X-X-X-X-X-X-X-X-X-X-X-X-X-X-X-X-X-X-X",
"-X-X-X-X-X-X-X-X-X-X-X-X-X-X-X-X-X-X-X-X-X-X-X-X-XO O O : A #.&.%.%.%.%.&.$./ 2 O O O -X-X-X-X-X-X-X-X-X-X-X-X-X-X-X-X-X-X-X-X-X",
"-X-X-X-X-X-X-X-X-X-X-X-X-X-X-X-X-X-X-X-X-X-X-X-X-X-X-XO O X 2 Z [ O.O.[ Z 2 O X * -X-X-X-X-X-X-X-X-X-X-X-X-X-X-X-X-X-X-X-X-X-X-X",
"-X-X-X-X-X-X-X-X-X-X-X-X-X-X-X-X-X-X-X-X-X-X-X-X-X-X-X-X-XO O O O O O O X O O -X-X-X-X-X-X-X-X-X-X-X-X-X-X-X-X-X-X-X-X-X-X-X-X-X",
"-X-X-X-X-X-X-X-X-X-X-X-X-X-X-X-X-X-X-X-X-X-X-X-X-X-X-X-X-X-X-XO O O O O O -X-X-X-X-X-X-X-X-X-X-X-X-X-X-X-X-X-X-X-X-X-X-X-X-X-X-X",
"-X-X-X-X-X-X-X-X-X-X-X-X-X-X-X-X-X-X-X-X-X-X-X-X-X-X-X-X-X-X-X-X-X-X-X-X-X-X-X-X-X-X-X-X-X-X-X-X-X-X-X-X-X-X-X-X-X-X-X-X-X-X-X-X",
"-X-X-X-X-X-X-X-X-X-X-X-X-X-X-X-X-X-X-X-X-X-X-X-X-X-X-X-X-X-X-X-X-X-X-X-X-X-X-X-X-X-X-X-X-X-X-X-X-X-X-X-X-X-X-X-X-X-X-X-X-X-X-X-X"
};
