/* XPM */
static const char *tasks_tracker_xpm[] = {
/* columns rows colors chars-per-pixel */
"64 64 9 1 ",
"  c #8C6B9E",
". c #8D6B9F",
"X c #8D6C9F",
"o c #72CAAF",
"O c #8781A3",
"+ c #8682A2",
"@ c #8783A3",
"# c #B0EDCC",
"$ c None",
/* pixels */
"$$$$$$$$$$$$$$$$$$$$$$$$$$$$$$$$$$$$$$$$$$$$$$$$$$$$$$$$$$$$$$$$",
"$$$$$$$$$$$$$$$$$$$$$$$$$$$$$$$$$$$$$$$$$$$$$$$$$$$$$$$$$$$$$$$$",
"$$$$$$$$$$$$$$$$$$$$$$$$$$$$$$$$$$$$$$$$$$$$$$$$$$$$$$$$$$$$$$$$",
"$$$$$$$$$$$$$$$$$$$$$$$$$$$$$$$$$$$$$$$$$$$$$$$$$$$$$$$$$$$$$$$$",
"$$$$$$$$$$$$$$$$$$$$$$$$$$$$$$$$$$$$$$$$$$$$$$$$$$$$$$$$$$$$$$$$",
"$$$$$$$$$$$$$$$$$$$$$$$$$$$$$$$$$$$$$$$$$$$$$$$$$$$$$$$$$$$$$$$$",
"$$$$$$.XXXXXXXXXXXXXXXXXXXXXXXXXXXXXXXXXXXXXXXXXXXXXXXXXXX$$$$$$",
"$$$$$$XXXXXXXXXXXXXXXXXXXXXXXXXXXXXXXXXXXXXXXXXXXXXXXXXXXX$$$$$$",
"$$$$$$XXooooooooooooXX##################################XX$$$$$$",
"$$$$$$XXooooooooooooXX##################################XX$$$$$$",
"$$$$$$XXooooooooooooXX##################################XX$$$$$$",
"$$$$$$XXooOOoooO@oooXX##################################XX$$$$$$",
"$$$$$$XXooXXoooXXoooXX##################################XX$$$$$$",
"$$$$$$XXooXXoooXXoooXX##################################XX$$$$$$",
"$$$$$$XXoo@@ooo@@oooXX##################################XX$$$$$$",
"$$$$$$XXooooooooooooXX##################################XX$$$$$$",
"$$$$$$XXooooooooooooXX##################################XX$$$$$$",
"$$$$$$XXooooooooooooXX##################################XX$$$$$$",
"$$$$$$XXXXXXXXXXXXXXXXXXXXXXXXXXXXXXXXXXXXXXXXXXXXXXXXXXXX$$$$$$",
"$$$$$$XXXXXXXXXXXXXXXXXXXXXXXXXXXXXXXXXXXXXXXXXXXXXXXXXXXX$$$$$$",
"$$$$$$$$$$$$$$$$$$$$$$$$$$$$$$$$$$$$$$$$$$$$$$$$$$$$$$$$$$$$$$$$",
"$$$$$$$$$$$$$$$$$$$$$$$$$$$$$$$$$$$$$$$$$$$$$$$$$$$$$$$$$$$$$$$$",
"$$$$$$$$$$$$$$$$$$$$$$$$$$$$$$$$$$$$$$$$$$$$$$$$$$$$$$$$$$$$$$$$",
"$$$$$$$$$$$$$$$$$$$$$$$$$$$$$$$$$$$$$$$$$$$$$$$$$$$$$$$$$$$$$$$$",
"$$$$$$$$$$$$$$$$$$$$$$$$$$$$$$$$$$$$$$$$$$$$$$$$$$$$$$$$$$$$$$$$",
"$$$$$$XXXXXXXXXXXXXXXXXXXXXXXXXXXXXXXXXXXXXXXXXXXXXXXXXXXX$$$$$$",
"$$$$$$XXXXXXXXXXXXXXXXXXXXXXXXXXXXXXXXXXXXXXXXXXXXXXXXXXXX$$$$$$",
"$$$$$$XXooooooooooooooooooooooooooooooooXX##############XX$$$$$$",
"$$$$$$XXooooooooooooooooooooooooooooooooXX##############XX$$$$$$",
"$$$$$$XXooooooooooooooooooooooooooooooooXX##############XX$$$$$$",
"$$$$$$XXooOOoooOOoooOOoooO@oooOOoooOOoooXX##############XX$$$$$$",
"$$$$$$XXooXXoooXXoooXXoooXXoooXXoooXXoooXX##############XX$$$$$$",
"$$$$$$XXooXXoooXXoooXXoooXXoooXXoooXXoooXX##############XX$$$$$$",
"$$$$$$XXoo@@ooo@@ooo@@ooo@@ooo@@ooo@@oooXX##############XX$$$$$$",
"$$$$$$XXooooooooooooooooooooooooooooooooXX##############XX$$$$$$",
"$$$$$$XXooooooooooooooooooooooooooooooooXX##############XX$$$$$$",
"$$$$$$XXooooooooooooooooooooooooooooooooXX##############XX$$$$$$",
"$$$$$$XXXXXXXXXXXXXXXXXXXXXXXXXXXXXXXXXXXXXXXXXXXXXXXXXXXX$$$$$$",
"$$$$$$XXXXXXXXXXXXXXXXXXXXXXXXXXXXXXXXXXXXXXXXXXXXXXXXXXXX$$$$$$",
"$$$$$$$$$$$$$$$$$$$$$$$$$$$$$$$$$$$$$$$$$$$$$$$$$$$$$$$$$$$$$$$$",
"$$$$$$$$$$$$$$$$$$$$$$$$$$$$$$$$$$$$$$$$$$$$$$$$$$$$$$$$$$$$$$$$",
"$$$$$$$$$$$$$$$$$$$$$$$$$$$$$$$$$$$$$$$$$$$$$$$$$$$$$$$$$$$$$$$$",
"$$$$$$$$$$$$$$$$$$$$$$$$$$$$$$$$$$$$$$$$$$$$$$$$$$$$$$$$$$$$$$$$",
"$$$$$$$$$$$$$$$$$$$$$$$$$$$$$$$$$$$$$$$$$$$$$$$$$$$$$$$$$$$$$$$$",
"$$$$$$XXXXXXXXXXXXXXXXXXXXXXXXXXXXXXXXXXXXXXXXXXXXXXXXXXXX$$$$$$",
"$$$$$$XXXXXXXXXXXXXXXXXXXXXXXXXXXXXXXXXXXXXXXXXXXXXXXXXXXX$$$$$$",
"$$$$$$XXooooooooooooooooooooooXX########################XX$$$$$$",
"$$$$$$XXooooooooooooooooooooooXX########################XX$$$$$$",
"$$$$$$XXooooooooooooooooooooooXX########################XX$$$$$$",
"$$$$$$XXooO@oooOOoooO@oooOOoooXX########################XX$$$$$$",
"$$$$$$XXooXXoooXXoooXXoooX oooXX########################XX$$$$$$",
"$$$$$$XXooXXoooXXoooXXoooXXoooXX########################XX$$$$$$",
"$$$$$$XXoo@@ooo@@ooo@Oooo@@oooXX########################XX$$$$$$",
"$$$$$$XXooooooooooooooooooooooXX########################XX$$$$$$",
"$$$$$$XXooooooooooooooooooooooXX########################XX$$$$$$",
"$$$$$$XXooooooooooooooooooooooXX########################XX$$$$$$",
"$$$$$$XXXXXXXXXXXXXXXXXXXXXXXXXXXXXXXXXXXXXXXXXXXXXXXXXXXX$$$$$$",
"$$$$$$XXXXXXXXXXXXXXXXXXXXXXXXXXXXXXXXXXXXXXXXXXXXXXXXXXXX$$$$$$",
"$$$$$$$$$$$$$$$$$$$$$$$$$$$$$$$$$$$$$$$$$$$$$$$$$$$$$$$$$$$$$$$$",
"$$$$$$$$$$$$$$$$$$$$$$$$$$$$$$$$$$$$$$$$$$$$$$$$$$$$$$$$$$$$$$$$",
"$$$$$$$$$$$$$$$$$$$$$$$$$$$$$$$$$$$$$$$$$$$$$$$$$$$$$$$$$$$$$$$$",
"$$$$$$$$$$$$$$$$$$$$$$$$$$$$$$$$$$$$$$$$$$$$$$$$$$$$$$$$$$$$$$$$",
"$$$$$$$$$$$$$$$$$$$$$$$$$$$$$$$$$$$$$$$$$$$$$$$$$$$$$$$$$$$$$$$$",
"$$$$$$$$$$$$$$$$$$$$$$$$$$$$$$$$$$$$$$$$$$$$$$$$$$$$$$$$$$$$$$$$"
};
