/* XPM */
static const char* quit_xpm[] = {
"16 16 105 2",
"  	c None",
". 	c #A66F9E",
"+ 	c #BC719C",
"@ 	c #C5729C",
"# 	c #C2729C",
"$ 	c #B4709D",
"% 	c #A26E9E",
"& 	c #D1749B",
"* 	c #EA7899",
"= 	c #ED7899",
"- 	c #F099AA",
"; 	c #ED7B9B",
"> 	c #E2769A",
", 	c #BB719D",
"' 	c #A86F9E",
") 	c #ED7999",
"! 	c #F098A9",
"~ 	c #EE849F",
"{ 	c #F3BBBD",
"] 	c #EE809D",
"^ 	c #F09AAB",
"/ 	c #EC7899",
"( 	c #C8739C",
"_ 	c #DD769A",
": 	c #ED7A9A",
"< 	c #F3B6BB",
"[ 	c #F2ACB5",
"} 	c #ED7C9B",
"| 	c #EF8EA4",
"1 	c #EF91A6",
"2 	c #BF729C",
"3 	c #F2AEB6",
"4 	c #F09FAD",
"5 	c #E4789B",
"6 	c #F080A1",
"7 	c #F5BEC1",
"8 	c #F288A6",
"9 	c #EA7B9E",
"0 	c #E97B9B",
"a 	c #F4BEC0",
"b 	c #EE829E",
"c 	c #D9759A",
"d 	c #EE7E9C",
"e 	c #F4BDBF",
"f 	c #ED799A",
"g 	c #DC7CA1",
"h 	c #F083A5",
"i 	c #F6BFC2",
"j 	c #F28AA8",
"k 	c #DF7EA4",
"l 	c #E97A9D",
"m 	c #EF90A5",
"n 	c #F2AFB6",
"o 	c #E67799",
"p 	c #F096A8",
"q 	c #F1A8B3",
"r 	c #D5769C",
"s 	c #E680A4",
"t 	c #F283A5",
"u 	c #F5B9BF",
"v 	c #F289A8",
"w 	c #D079A1",
"x 	c #E9799A",
"y 	c #F3BABD",
"z 	c #E97799",
"A 	c #F09DAC",
"B 	c #F1A3B0",
"C 	c #E4799C",
"D 	c #EB81A4",
"E 	c #F285A6",
"F 	c #E27DA1",
"G 	c #EB7899",
"H 	c #F3BDBE",
"I 	c #E1769A",
"J 	c #EE89A2",
"K 	c #F3B3B9",
"L 	c #DF769A",
"M 	c #EA7FA2",
"N 	c #F082A5",
"O 	c #DE799D",
"P 	c #EA7F9D",
"Q 	c #F3B8BC",
"R 	c #CE749B",
"S 	c #EE819D",
"T 	c #CE749C",
"U 	c #EF7FA1",
"V 	c #F282A4",
"W 	c #F181A3",
"X 	c #DA799F",
"Y 	c #E3779A",
"Z 	c #AC6F9E",
"` 	c #F4BFC0",
" .	c #F09EAD",
"..	c #F3B5BA",
"+.	c #C4729C",
"@.	c #F1A3AF",
"#.	c #F1A8B2",
"$.	c #F4BCBE",
"%.	c #F2ADB5",
"&.	c #F09CAB",
"*.	c #EF95A8",
"=.	c #ED7E9C",
"-.	c #AB6F9D",
";.	c #E6779A",
">.	c #D9759B",
"                                ",
"          . + @ # $             ",
"      % & * = - ; = > ,         ",
"    ' > ) ! ~ { ] ^ ] / (       ",
"    _ : < [ } { ] | 1 | / ,     ",
"  2 = 3 4 5 6 7 8 9 0 a b >     ",
"  c d e f g h i j k l m n = $   ",
"  o p q r s t u v t w x y = #   ",
"  z A B C D t E t t F G H = @   ",
"  I J K L M t t t N O P Q = +   ",
"  R f a S T U V W X Y [ - * .   ",
"  Z * | ` S = = = =  ...) &     ",
"    +./ | a K @.#.$.%.: > %     ",
"      +.* f J &.*.=.= _ '       ",
"        -.R I z ;.>.2           ",
"                                "};
