/* XPM */
static const char* settings_xpm[] = {
"16 16 88 1",
" 	c None",
".	c #BBC2DE",
"+	c #BCC2DE",
"@	c #A193BA",
"#	c #9882AE",
"$	c #9D8DB6",
"%	c #CAD2E8",
"&	c #D4D9EB",
"*	c #A293B8",
"=	c #9B85AF",
"-	c #A699BC",
";	c #C1CBE6",
">	c #BDC5E1",
",	c #ACA8CA",
"'	c #B9BEDB",
")	c #D4D9EC",
"!	c #E7E9F2",
"~	c #C1C6DE",
"{	c #B5B1CD",
"]	c #CAD1E5",
"^	c #C6D0E7",
"/	c #9781AD",
"(	c #BDC5E0",
"_	c #C2CDE7",
":	c #BAC0DC",
"<	c #C0C5DD",
"[	c #BBBCD5",
"}	c #C7CFE5",
"|	c #D0DBEC",
"1	c #CAD4E9",
"2	c #CAD2E5",
"3	c #9C87B0",
"4	c #ACA9CA",
"5	c #AEACCD",
"6	c #A19EBF",
"7	c #AAB2CC",
"8	c #A9B0CB",
"9	c #B0B8D1",
"0	c #BCC1DB",
"a	c #DAE0EE",
"b	c #B7B4CE",
"c	c #9E8EB7",
"d	c #B9BFDB",
"e	c #BABFDC",
"f	c #A5A5C1",
"g	c #C0A8A0",
"h	c #A3A0BE",
"i	c #A9A9C6",
"j	c #CED5E7",
"k	c #C8CCE0",
"l	c #A191B7",
"m	c #C1CCE6",
"n	c #C3CEE7",
"o	c #B3B0CD",
"p	c #A8AFCB",
"q	c #C0A8A1",
"r	c #E8CC92",
"s	c #A6A9C6",
"t	c #C7CEE1",
"u	c #CED9EB",
"v	c #C2CDE6",
"w	c #BBC1DE",
"x	c #CED8EB",
"y	c #B5B2CE",
"z	c #A5A7C5",
"A	c #C2C9DF",
"B	c #A29EBF",
"C	c #A7A9C7",
"D	c #BEC6E1",
"E	c #9E8FB7",
"F	c #D9E0EE",
"G	c #B2B0CE",
"H	c #A5A4C3",
"I	c #A9AFCA",
"J	c #A7A7C5",
"K	c #B7BCD9",
"L	c #CBD2E5",
"M	c #DADFEE",
"N	c #D2DCEC",
"O	c #CED6E8",
"P	c #C8CFE2",
"Q	c #C2C9E0",
"R	c #A69ABC",
"S	c #B7B3CE",
"T	c #A093BA",
"U	c #9B86AF",
"V	c #A192B8",
"W	c #9E8DB6",
"                ",
"       .+       ",
"   @# $%&* =-   ",
"  @;>,')!~{]^-  ",
"  /(__:<[}|123  ",
"   4_567890ab   ",
"  cde6fgghijkl  ",
" .mnopqrrqstuvw ",
" wvxypgrrqzAnm. ",
"  l<~BfqqhCDdE  ",
"   {FGHIsJK_4   ",
"  3LMNOPQD__(/  ",
"  R^]Skxn',>;T  ",
"   -U V_mW #@   ",
"       ..       ",
"                "};
