/* XPM */
static const char *stopwatchxpm[] = {
/* columns rows colors chars-per-pixel */
"16 16 56 1 ",
"  c None",
". c #213133",
"X c #455456",
"o c #465658",
"O c #565656",
"+ c #526264",
"@ c #00AAC0",
"# c #00ABC0",
"$ c #00ABC1",
"% c #07AEC2",
"& c #08AEC2",
"* c #09AEC2",
"= c #27B7C8",
"- c #28B7C8",
"; c #29B7C8",
": c #28B7C9",
"> c #29B7C9",
", c #2AB8C9",
"< c #2DB8C9",
"1 c #2DB9CA",
"2 c #2EB9CA",
"3 c #4CC1CF",
"4 c #4DC3D1",
"5 c #4EC3D1",
"6 c gray59",
"7 c #9A9A9A",
"8 c #9B9B9B",
"9 c #AFAEAE",
"0 c #B0AFAF",
"q c #97D6DD",
"w c #97D6DE",
"e c #99D6DE",
"r c #9AD7DE",
"t c #BEE1E5",
"y c #C5C5C5",
"u c #C6C6C6",
"i c #CED0D0",
"p c #D5D5D5",
"a c #C1E1E5",
"s c #DAE8EA",
"d c #DAE9EA",
"f c #DCEAEC",
"g c #E1E0E0",
"h c #E1E1E1",
"j c #E3E2E2",
"k c #EBEDED",
"l c #EEEEEE",
"z c #EFEEEE",
"x c #EFEFEF",
"c c #F1EFEF",
"v c #F2EFEF",
"b c gray94",
"n c #F1F0F0",
"m c #F3F0F0",
"M c gray95",
"N c #F4F3F3",
/* pixels */
"                ",
"       @@       ",
"    #*154<*#    ",
"   $,rfiifr-$   ",
"  #,avN77Nct;#  ",
"  &rvlM88Mlvw%  ",
"  2dzlM66Mlzs<  ",
" @3klxhXojxlk3@ ",
" @3klxg+.9blk3@ ",
"  1szllj0Oyns<  ",
"  &rcllxbupme&  ",
"  #>tczllnmt>#  ",
"   $=qskkse:#   ",
"    #&<33<&#    ",
"       @@       ",
"                "
};
