/* XPM */
static const char* taskable_64_xpm[] = {
"64 64 191 2",
"  	c None",
". 	c #1F212B",
"+ 	c #2F2631",
"@ 	c #5F3745",
"# 	c #733F4E",
"$ 	c #74404E",
"% 	c #6F3D4C",
"& 	c #28232D",
"* 	c #6A3B49",
"= 	c #693A48",
"- 	c #29232E",
"; 	c #703E4C",
"> 	c #5E3643",
", 	c #342631",
"' 	c #51313D",
") 	c #422B37",
"! 	c #743F4E",
"~ 	c #3F2B37",
"{ 	c #AA5B6F",
"] 	c #E0758E",
"^ 	c #F07D97",
"/ 	c #F27D97",
"( 	c #E77891",
"_ 	c #432C37",
": 	c #DE738B",
"< 	c #D97189",
"[ 	c #472D39",
"} 	c #E97992",
"| 	c #C4667C",
"1 	c #633846",
"2 	c #EF7C96",
"3 	c #A8586B",
"4 	c #864858",
"5 	c #F17D97",
"6 	c #DF758D",
"7 	c #3E2B37",
"8 	c #25232D",
"9 	c #935163",
"0 	c #F37E98",
"a 	c #EB7A94",
"b 	c #975265",
"c 	c #E57790",
"d 	c #E2768E",
"e 	c #985365",
"f 	c #ED7B95",
"g 	c #D46F86",
"h 	c #A2576A",
"i 	c #C3677D",
"j 	c #B15E73",
"k 	c #B15E72",
"l 	c #A1576A",
"m 	c #925163",
"n 	c #2D252F",
"o 	c #D26E85",
"p 	c #E2778F",
"q 	c #A96574",
"r 	c #AC6576",
"s 	c #E57891",
"t 	c #AC6575",
"u 	c #AA6575",
"v 	c #E3778F",
"w 	c #D16E85",
"x 	c #302530",
"y 	c #E2758E",
"z 	c #CBC9C0",
"A 	c #C3C1B9",
"B 	c #B56678",
"C 	c #C3C2BA",
"D 	c #CAC9C0",
"E 	c #AA6574",
"F 	c #BCB9B2",
"G 	c #B76779",
"H 	c #B76679",
"I 	c #E87992",
"J 	c #E67891",
"K 	c #2F2530",
"L 	c #E0748C",
"M 	c #F07D96",
"N 	c #F27E97",
"O 	c #26262F",
"P 	c #92807E",
"Q 	c #9D8987",
"R 	c #A38B8B",
"S 	c #DC9CA4",
"T 	c #9F8A89",
"U 	c #C39498",
"V 	c #BB9295",
"W 	c #313237",
"X 	c #ECEBDE",
"Y 	c #FDFCEE",
"Z 	c #FEFCEE",
"` 	c #313238",
" .	c #EDECDF",
"..	c #FEFDEF",
"+.	c #FCFBED",
"@.	c #FAF9EC",
"#.	c #F5F5E7",
"$.	c #B2B4AC",
"%.	c #6C8375",
"&.	c #A7ABA3",
"*.	c #F7F7E9",
"=.	c #F6F5E8",
"-.	c #ABAEA5",
";.	c #528F74",
">.	c #5CB58C",
",.	c #53846E",
"'.	c #EDECE0",
").	c #ADB0A7",
"!.	c #538F74",
"~.	c #5FBA90",
"{.	c #58AB85",
"].	c #798A7F",
"^.	c #F2F1E4",
"/.	c #538E74",
"(.	c #5EBA8F",
"_.	c #708579",
":.	c #DFDED3",
"<.	c #ECEBDF",
"[.	c #CACABF",
"}.	c #D7D7CC",
"|.	c #FAF9EB",
"1.	c #AFB2A9",
"2.	c #528E73",
"3.	c #73887C",
"4.	c #DEDED3",
"5.	c #8E958D",
"6.	c #529879",
"7.	c #5B8472",
"8.	c #C4C5BB",
"9.	c #AEB0A7",
"0.	c #548E74",
"a.	c #58AB86",
"b.	c #708679",
"c.	c #FBFAED",
"d.	c #78877D",
"e.	c #5AB089",
"f.	c #5DB68D",
"g.	c #588570",
"h.	c #AEB0A8",
"i.	c #72887B",
"j.	c #DEDED2",
"k.	c #D2D2C7",
"l.	c #618573",
"m.	c #5BB38B",
"n.	c #598470",
"o.	c #C7C8BE",
"p.	c #F7F6E8",
"q.	c #71877A",
"r.	c #DFDFD3",
"s.	c #D0D0C5",
"t.	c #5F8271",
"u.	c #5BB28A",
"v.	c #598370",
"w.	c #C5C6BC",
"x.	c #FBFAEC",
"y.	c #F7F6E9",
"z.	c #AFB1A9",
"A.	c #528D73",
"B.	c #D0D0C6",
"C.	c #628473",
"D.	c #C8C9BF",
"E.	c #B1B3AA",
"F.	c #538B72",
"G.	c #5BB38A",
"H.	c #5B8471",
"I.	c #C8C8BE",
"J.	c #F4F3E6",
"K.	c #528B71",
"L.	c #5EB98F",
"M.	c #CFCFC5",
"N.	c #608372",
"O.	c #5DB68C",
"P.	c #57816E",
"Q.	c #949891",
"R.	c #5F8472",
"S.	c #54A27F",
"T.	c #6F8579",
"U.	c #D0CFC5",
"V.	c #60BD91",
"W.	c #618272",
"X.	c #539B7B",
"Y.	c #72857A",
"Z.	c #DDDCD1",
"`.	c #C9C9BF",
" +	c #E6E5D9",
".+	c #2E2F35",
"++	c #D8D7CD",
"@+	c #D8D7CC",
"#+	c #21232D",
"$+	c #525353",
"%+	c #676764",
"                                                                                                                                ",
"                                                                                                                                ",
"                                                                                                                                ",
"                                                                                                                                ",
"                                                                                                                                ",
"                                                                                                                                ",
"                                                                                                                                ",
"                                                                                                                                ",
"                                                                                                                                ",
"                                                                                                                                ",
"                                    .       .       .     . .     . .     .       .       .                                     ",
"                                  . . .   . . .   . .     . .     . .     . .   . . .   . . .                                   ",
"                          + @ # $ % & * $ = - ; $ > , # $ ' ) ! ! ) ' $ # , > $ ; - = $ * & % $ # @ +                           ",
"                        ~ { ] ^ / ( _ : / < [ } / | 1 2 / 3 4 5 5 4 3 / 2 1 | / } [ < / : _ ( / ^ 6 { 7                         ",
"                      8 9 2 0 0 0 a b c 0 d e f 0 g h 5 0 i j 0 0 k i 0 5 l g 0 f e d 0 c b a 0 0 0 2 m 8                       ",
"                      n o 0 0 p q r s 0 0 0 0 0 0 0 0 0 0 0 0 0 0 0 0 0 0 0 0 0 0 0 0 0 0 s t u v 0 0 w n                       ",
"                      x y 0 0 q z A B 0 0 0 0 0 0 0 0 0 0 0 0 0 0 0 0 0 0 0 0 0 0 0 0 0 0 B C D E 0 0 y x                       ",
"                      x y 0 0 r A F G 0 0 0 0 0 0 0 0 0 0 0 0 0 0 0 0 0 0 0 0 0 0 0 0 0 0 H F A t 0 0 y x                       ",
"                      x y 0 0 s B G I 0 0 0 0 0 0 0 0 0 0 0 0 0 0 0 0 0 0 0 0 0 0 0 0 0 0 I G B J 0 0 y x                       ",
"                      x y 0 0 0 0 0 0 0 0 0 0 0 0 0 0 0 0 0 0 0 0 0 0 0 0 0 0 0 0 0 0 0 0 0 0 0 0 0 0 y x                       ",
"                      K L M M M M M M M M M M M M M M M M M M M M M M M M M M M M M M M M ^ N M 5 5 M L K                       ",
"                      O P Q Q Q Q Q Q Q Q Q Q Q Q Q Q Q Q Q Q Q Q Q Q Q Q Q Q Q Q Q Q Q Q R S T U V Q P O                       ",
"                      W X Y Y Y Y Y Y Y Y Y Y Y Y Y Y Y Y Y Y Y Y Y Y Y Y Y Y Y Y Y Y Y Y Y Z Y Y Y Y X W                       ",
"                      `  ............................................................................. .`                       ",
"                      `  ............................................................................. .`                       ",
"                      `  ............................................................................. .`                       ",
"                      `  ............................................................................. .`                       ",
"                      `  ............................................................................. .`                       ",
"                      `  ............................................................................. .`                       ",
"                      `  .........................................................+.@.+............... .`                       ",
"                      `  .......................................................#.$.%.&.*............. .`                       ",
"                      `  .....................................................=.-.;.>.,.'............. .`                       ",
"                      `  ...................................................=.).!.~.{.].^............. .`                       ",
"                      `  .................................................=.)./.(.{._.:.Y ............ .`                       ",
"                      `  .................<.[.}.|.......................=.1.2.(.{.3.4.Y .............. .`                       ",
"                      `  ...............+.5.6.7.8.|...................=.9.0.(.a.b.:.Y ................ .`                       ",
"                      `  ...............c.d.e.f.g.8.@...............=.h.2.(.{.i.j.Y .................. .`                       ",
"                      `  ...............Y k.l.m.f.n.o.@...........p.1.0.(.a.q.r.Y .................... .`                       ",
"                      `  .................+.s.t.u.>.v.w.x.......y.z.A.(.{.q.j.Y ...................... .`                       ",
"                      `  ...................+.B.C.u.f.n.D.x...y.E.F.(.a.i.r.Y ........................ .`                       ",
"                      `  .....................+.B.t.G.>.H.I.J.1.K.L.{.b.j.Y .......................... .`                       ",
"                      `  .......................+.M.N.G.O.P.Q.K.(.{.3.:.Y ............................ .`                       ",
"                      `  .........................c.M.R.m.O.S.L.{.T.4.Y .............................. .`                       ",
"                      `  ...........................+.U.N.u.V.{.3.4.Y ................................ .`                       ",
"                      `  .............................+.M.W.X.Y.r.Y .................................. .`                       ",
"                      `  ...............................c.Z.`. +Y .................................... .`                       ",
"                      `  ............................................................................. .`                       ",
"                      `  ............................................................................. .`                       ",
"                      `  ............................................................................. .`                       ",
"                      `  ............................................................................. .`                       ",
"                      `  ............................................................................. .`                       ",
"                      `  ............................................................................. .`                       ",
"                      .+++x.x.x.x.x.x.x.x.x.x.x.x.x.x.x.x.x.x.x.x.x.x.x.x.x.x.x.x.x.x.x.x.x.x.x.x.x.x.@+.+                      ",
"                      #+$+%+%+%+%+%+%+%+%+%+%+%+%+%+%+%+%+%+%+%+%+%+%+%+%+%+%+%+%+%+%+%+%+%+%+%+%+%+%+$+#+                      ",
"                                                                                                                                ",
"                                                                                                                                ",
"                                                                                                                                ",
"                                                                                                                                ",
"                                                                                                                                ",
"                                                                                                                                ",
"                                                                                                                                ",
"                                                                                                                                ",
"                                                                                                                                ",
"                                                                                                                                "};
