/* XPM */
static const char *taskablexpm[] = {
/* columns rows colors chars-per-pixel */
"16 16 56 1 ",
"  c None",
". c #A25F72",
"X c #A55E71",
"o c #A95D72",
"O c #A95E72",
"+ c #C66E83",
"@ c #C76F84",
"# c #D17B8E",
"$ c #D27B8F",
"% c #EF7B95",
"& c #76A58E",
"* c #878887",
"= c #949592",
"- c #959693",
"; c #92B5A1",
": c #97B9A5",
"> c #9AB9A6",
", c #99BAA6",
"< c #C4A4A7",
"1 c #C9A6AA",
"2 c #DCB8B9",
"3 c #DDB8BA",
"4 c #E4BBBE",
"5 c #A3C0AD",
"6 c #A4C1AE",
"7 c #ADC6B4",
"8 c #B4C9B8",
"9 c #C5D3C4",
"0 c #CFDBCC",
"q c #D6DFD0",
"w c #DBDAD0",
"e c #E1E0D6",
"r c #E1E1D6",
"t c #E2E1D6",
"y c #E1E2D7",
"u c #E7EADD",
"i c #EDF0E2",
"p c #F1F3E5",
"a c #F2F3E6",
"s c #F2F4E6",
"d c #F5F6E8",
"f c #F7F6E9",
"g c #F6F7E9",
"h c #F7F7EA",
"j c #F8F7E9",
"k c #F8F8EA",
"l c #F9F8EB",
"z c #F9F9EB",
"x c #FAF9EC",
"c c #FEFDEF",
"v c #FEFEF0",
"b c #FFFEF0",
"n c #FEFFF0",
"m c #FEFFF1",
"M c #FFFFF1",
"N c #FFFFF2",
/* pixels */
"                ",
"                ",
"                ",
"   X.oOOOOo.X   ",
"   +#%%%%%%$@   ",
"   <322222241   ",
"   yNnnnnmNNy   ",
"   eMbvcbg9dt   ",
"   rbqiMh5>kt   ",
"   rM8;u6:aMe   ",
"   eMx7&,sbMe   ",
"   rMbz0pbcMr   ",
"   wlffljfflw   ",
"   *-======-*   ",
"                ",
"                "
};
