/* XPM */
static const char *timedtaskxpm[] = {
/* columns rows colors chars-per-pixel */
"16 16 35 1 ",
"  c None",
". c #79584D",
"X c #78584E",
"o c #79594F",
"O c #7A594E",
"+ c #CB7C15",
"@ c #8D6E63",
"# c #FF9800",
"$ c #F7A01D",
"% c #C78126",
"& c #F2A835",
"* c #A79D90",
"= c #A79D91",
"- c #9DA7B5",
"; c #9FAAB9",
": c #A0A8B5",
"> c #A7AEB9",
", c #BAB7BB",
"< c #CDCBB7",
"1 c #CDCBB8",
"2 c #BBDEFB",
"3 c #BDDFFB",
"4 c #BBDEFC",
"5 c #BADFFD",
"6 c #BADFFE",
"7 c #BEE0FB",
"8 c #BFE0FB",
"9 c #BCE1FE",
"0 c #C5D8DD",
"q c #C5D8DE",
"w c #C0E0FB",
"e c #C0E3FF",
"r c #C2E3FF",
"t c #CFE8FC",
"y c #DDF0FF",
/* pixels */
"                ",
"    @@@@@@@@    ",
"     O....O     ",
"     :,>;;-     ",
"     rye999     ",
"     3t8222     ",
"      w722      ",
"       22       ",
"       55       ",
"      41<4      ",
"     61$$16     ",
"     0&##&q     ",
"     *%++%=     ",
"     oX..Xo     ",
"    @@@@@@@@    ",
"                "
};
